<svg width="11" height="9" viewBox="0 0 11 9" fill="none" xmlns="http://www.w3.org/2000/svg">
<path fill-rule="evenodd" clip-rule="evenodd" d="M5.18264 0.18348C5.2407 0.125275 5.30967 0.0790968 5.3856 0.0475887C5.46153 0.0160806 5.54293 -0.000137329 5.62514 -0.000137329C5.70735 -0.000137329 5.78875 0.0160806 5.86468 0.0475887C5.94061 0.0790968 6.00958 0.125275 6.06764 0.18348L9.81764 3.93348C9.87584 3.99154 9.92202 4.06051 9.95353 4.13644C9.98504 4.21237 10.0013 4.29377 10.0013 4.37598C10.0013 4.45819 9.98504 4.53959 9.95353 4.61552C9.92202 4.69145 9.87584 4.76042 9.81764 4.81848L6.06764 8.56848C5.95028 8.68584 5.79111 8.75177 5.62514 8.75177C5.45917 8.75177 5.3 8.68584 5.18264 8.56848C5.06528 8.45112 4.99935 8.29195 4.99935 8.12598C4.99935 7.96001 5.06528 7.80084 5.18264 7.68348L8.49139 4.37598L5.18264 1.06848C5.12444 1.01042 5.07826 0.941453 5.04675 0.865522C5.01524 0.78959 4.99902 0.708189 4.99902 0.62598C4.99902 0.54377 5.01524 0.462369 5.04675 0.386438C5.07826 0.310506 5.12444 0.241537 5.18264 0.18348Z" fill="#00003D"/>
<path fill-rule="evenodd" clip-rule="evenodd" d="M0 4.37598C0 4.21022 0.0658481 4.05125 0.183058 3.93403C0.300269 3.81682 0.45924 3.75098 0.625 3.75098H8.75C8.91576 3.75098 9.07473 3.81682 9.19194 3.93403C9.30915 4.05125 9.375 4.21022 9.375 4.37598C9.375 4.54174 9.30915 4.70071 9.19194 4.81792C9.07473 4.93513 8.91576 5.00098 8.75 5.00098H0.625C0.45924 5.00098 0.300269 4.93513 0.183058 4.81792C0.0658481 4.70071 0 4.54174 0 4.37598Z" fill="#00003D"/>
</svg>
