<svg width="20" height="20" viewBox="0 0 20 20" fill="none" xmlns="http://www.w3.org/2000/svg">
<path fill-rule="evenodd" clip-rule="evenodd" d="M10.1826 6.18337C10.2407 6.12517 10.3097 6.07899 10.3856 6.04748C10.4615 6.01597 10.5429 5.99976 10.6251 5.99976C10.7073 5.99976 10.7888 6.01597 10.8647 6.04748C10.9406 6.07899 11.0096 6.12517 11.0676 6.18337L14.8176 9.93337C14.8758 9.99143 14.922 10.0604 14.9535 10.1363C14.985 10.2123 15.0013 10.2937 15.0013 10.3759C15.0013 10.4581 14.985 10.5395 14.9535 10.6154C14.922 10.6913 14.8758 10.7603 14.8176 10.8184L11.0676 14.5684C10.9503 14.6857 10.7911 14.7517 10.6251 14.7517C10.4592 14.7517 10.3 14.6857 10.1826 14.5684C10.0653 14.451 9.99935 14.2918 9.99935 14.1259C9.99935 13.9599 10.0653 13.8007 10.1826 13.6834L13.4914 10.3759L10.1826 7.06837C10.1244 7.01032 10.0783 6.94135 10.0468 6.86541C10.0152 6.78948 9.99902 6.70808 9.99902 6.62587C9.99902 6.54366 10.0152 6.46226 10.0468 6.38633C10.0783 6.3104 10.1244 6.24143 10.1826 6.18337Z" fill="white"/>
<path fill-rule="evenodd" clip-rule="evenodd" d="M5 10.376C5 10.2102 5.06585 10.0512 5.18306 9.93403C5.30027 9.81682 5.45924 9.75098 5.625 9.75098H13.75C13.9158 9.75098 14.0747 9.81682 14.1919 9.93403C14.3092 10.0512 14.375 10.2102 14.375 10.376C14.375 10.5417 14.3092 10.7007 14.1919 10.8179C14.0747 10.9351 13.9158 11.001 13.75 11.001H5.625C5.45924 11.001 5.30027 10.9351 5.18306 10.8179C5.06585 10.7007 5 10.5417 5 10.376Z" fill="white"/>
</svg>
