<svg width="16" height="16" viewBox="0 0 16 16" fill="none" xmlns="http://www.w3.org/2000/svg">
<path d="M15.4438 8.28125H13.8625H2.1375H0.55625C0.50625 8.28125 0.46875 8.32187 0.46875 8.36875V9.14375C0.46875 9.19375 0.509375 9.23125 0.55625 9.23125H15.4406C15.4906 9.23125 15.5281 9.19063 15.5281 9.14375H15.5312V8.36875C15.5312 8.31875 15.4906 8.28125 15.4438 8.28125ZM12.6625 7.57812C12.5312 7.42812 12.3406 7.33437 12.125 7.33437C12.0469 7.33437 11.9719 7.3125 11.9062 7.27187C11.8813 7.25625 11.8594 7.2375 11.8375 7.21562C11.7625 7.14062 11.7219 7.0375 11.7219 6.93125C11.725 6.91563 11.7219 6.89687 11.7219 6.88125C11.7 6.52812 11.4062 6.2375 11.0531 6.21562C11.0312 6.21562 11.0125 6.21562 10.9937 6.21562C10.9344 6.21875 10.8781 6.225 10.8219 6.24062C10.7531 6.25938 10.6875 6.25938 10.625 6.24375C10.4875 6.2125 10.3719 6.10625 10.3313 5.9625C10.2438 5.65625 9.9625 5.44063 9.64375 5.44063C9.50313 5.44063 9.36875 5.48125 9.25313 5.55625C9.19063 5.59688 9.11875 5.61875 9.04375 5.62187C9 5.62187 8.95625 5.61562 8.9125 5.60313C8.79688 5.56563 8.70625 5.48125 8.65938 5.36875C8.55 5.09688 8.2875 4.92188 7.99687 4.92188C7.70312 4.92188 7.44375 5.09688 7.33437 5.36875C7.29063 5.48125 7.19688 5.56563 7.08125 5.60313C7.0375 5.61875 6.99375 5.62187 6.95 5.62187C6.87812 5.62187 6.80312 5.59688 6.74062 5.55625C6.625 5.48125 6.49062 5.44063 6.35 5.44063C6.03125 5.44063 5.74687 5.65625 5.6625 5.9625C5.62187 6.10625 5.50625 6.2125 5.36875 6.24375C5.30625 6.25938 5.2375 6.25938 5.17188 6.24062C5.11562 6.225 5.05937 6.21562 5 6.21562C4.97813 6.21562 4.95938 6.21562 4.94063 6.21562C4.5875 6.2375 4.29375 6.52812 4.27187 6.88125C4.27187 6.89687 4.27187 6.91563 4.27187 6.93125C4.275 7.0375 4.23125 7.14062 4.15625 7.21562C4.1375 7.2375 4.1125 7.25625 4.0875 7.27187C4.02188 7.3125 3.94688 7.33437 3.86875 7.33437C3.65625 7.33437 3.4625 7.42812 3.33125 7.57812C3.27187 7.64375 3.225 7.725 3.19375 7.8125H12.8C12.7688 7.725 12.7219 7.64687 12.6625 7.57812ZM1.13437 9.79375C1.15 10.1781 1.20625 10.8656 1.40313 11.6062C1.40625 11.6125 1.40625 11.6187 1.40937 11.625C1.41875 11.6562 1.42813 11.6906 1.4375 11.7219C1.44375 11.7406 1.44687 11.7563 1.45312 11.7719C1.45938 11.7938 1.46563 11.8187 1.475 11.8406C1.48438 11.8687 1.49688 11.8969 1.50625 11.925C1.5125 11.9438 1.51875 11.9656 1.52813 11.9844C1.5375 12.0063 1.54688 12.0312 1.55625 12.0531C1.5625 12.0656 1.56562 12.0781 1.57187 12.0906C1.60625 12.1687 1.64062 12.2438 1.68125 12.3188C1.68437 12.3281 1.69062 12.3406 1.69687 12.35C1.70938 12.3719 1.72187 12.3937 1.73438 12.4156C1.74063 12.4281 1.75 12.4438 1.75937 12.4594C1.775 12.4844 1.79062 12.5125 1.80625 12.5375C1.81875 12.5594 1.83438 12.5844 1.85 12.6062C1.85625 12.6187 1.86563 12.6281 1.87188 12.6406C1.89375 12.6687 1.9125 12.7 1.93438 12.7281C1.9375 12.7312 1.9375 12.7344 1.94062 12.7375C2.26562 13.1781 2.69375 13.5344 3.18438 13.775C3.1875 13.775 3.19062 13.7781 3.19375 13.7781C3.23125 13.7969 3.27188 13.8156 3.30938 13.8313C3.3125 13.8313 3.31562 13.8344 3.31875 13.8344C3.4 13.8688 3.48438 13.9031 3.56875 13.9312C3.57812 13.9344 3.58437 13.9375 3.59375 13.9406C3.625 13.9531 3.65937 13.9625 3.69062 13.9719C3.70625 13.975 3.71875 13.9812 3.73438 13.9844C3.75938 13.9906 3.7875 14 3.8125 14.0063C3.82812 14.0094 3.84687 14.0156 3.8625 14.0188C3.8875 14.025 3.91562 14.0312 3.94062 14.0375C3.95937 14.0406 3.975 14.0437 3.99062 14.0469C4.02812 14.0531 4.06875 14.0625 4.10625 14.0688C4.11875 14.0719 4.13437 14.0719 4.14687 14.075C4.175 14.0781 4.20625 14.0844 4.2375 14.0875C4.25313 14.0906 4.27187 14.0906 4.2875 14.0938C4.31562 14.0969 4.34063 14.1 4.36875 14.1031C4.38438 14.1031 4.40312 14.1062 4.41875 14.1062C4.44687 14.1094 4.47813 14.1125 4.50625 14.1125C4.52187 14.1156 4.53438 14.1156 4.55 14.1156C4.59375 14.1188 4.6375 14.1187 4.68125 14.1187H11.3125C11.3562 14.1187 11.4 14.1188 11.4438 14.1156C11.4594 14.1156 11.4719 14.1125 11.4875 14.1125C11.5156 14.1094 11.5469 14.1094 11.575 14.1062C11.5906 14.1062 11.6094 14.1031 11.625 14.1031C11.6531 14.1 11.6781 14.0969 11.7063 14.0938C11.7219 14.0906 11.7406 14.0906 11.7563 14.0875C11.7844 14.0844 11.8156 14.0813 11.8469 14.075C11.8594 14.0719 11.875 14.0719 11.8875 14.0688C11.925 14.0625 11.9656 14.0562 12.0031 14.0469C12.0219 14.0437 12.0375 14.0406 12.0531 14.0375C12.0813 14.0312 12.1063 14.025 12.1313 14.0188C12.1469 14.0156 12.1656 14.0094 12.1812 14.0063C12.2062 14 12.2344 13.9906 12.2594 13.9844C12.275 13.9812 12.2875 13.975 12.3031 13.9719C12.3375 13.9625 12.3687 13.95 12.4 13.9406C12.4094 13.9375 12.4156 13.9344 12.425 13.9312C12.5094 13.9031 12.5938 13.8688 12.675 13.8344C12.6781 13.8344 12.6812 13.8313 12.6844 13.8313C12.725 13.8156 12.7625 13.7969 12.8 13.7781C12.8031 13.7781 12.8062 13.775 12.8094 13.775C13.3 13.5344 13.7281 13.1781 14.0594 12.7406C14.0625 12.7375 14.0625 12.7344 14.0656 12.7312C14.0875 12.7031 14.1094 12.6719 14.1281 12.6438C14.1344 12.6313 14.1437 12.6219 14.15 12.6094C14.1656 12.5875 14.1781 12.5625 14.1938 12.5406C14.2094 12.5156 14.225 12.4875 14.2406 12.4625C14.25 12.4469 14.2594 12.4312 14.2688 12.4156C14.2812 12.3937 14.2937 12.3719 14.3062 12.35C14.3094 12.3406 14.3156 12.3281 14.3219 12.3188C14.3594 12.2438 14.3969 12.1687 14.4312 12.0906C14.4375 12.0781 14.4406 12.0656 14.4469 12.0531C14.4562 12.0312 14.4656 12.0063 14.475 11.9844C14.4813 11.9656 14.4906 11.9438 14.4969 11.925C14.5094 11.8969 14.5188 11.8687 14.5281 11.8406C14.5344 11.8187 14.5437 11.7938 14.55 11.7719C14.5563 11.7531 14.5594 11.7375 14.5656 11.7219C14.575 11.6906 14.5844 11.6562 14.5938 11.625C14.5969 11.6187 14.5969 11.6125 14.6 11.6062C14.7969 10.8656 14.8531 10.1781 14.8687 9.79375C14.8687 9.75937 14.8719 9.72812 14.8719 9.7H1.13125C1.13125 9.72812 1.13437 9.75937 1.13437 9.79375ZM10.0156 14.9969C10.0156 15.2906 10.2563 15.5312 10.55 15.5312C10.8438 15.5312 11.0844 15.2906 11.0844 14.9969V14.5875H10.0156V14.9969ZM5.98125 14.5875H4.9125V14.9969C4.9125 15.2906 5.15313 15.5312 5.44688 15.5312C5.74062 15.5312 5.98125 15.2906 5.98125 14.9969V14.5875ZM9.78438 2.65625C9.48438 2.65625 9.24375 2.9 9.24375 3.19688C9.24375 3.49375 9.4875 3.7375 9.78438 3.7375C10.0813 3.7375 10.325 3.49375 10.325 3.19688C10.325 2.9 10.0813 2.65625 9.78438 2.65625ZM11.3188 0.46875C11.0219 0.46875 10.7812 0.7125 10.7812 1.00937C10.7812 1.30625 11.0219 1.55 11.3188 1.55C11.6156 1.55 11.8594 1.30625 11.8594 1.00937C11.8594 0.7125 11.6156 0.46875 11.3188 0.46875ZM2.67188 4.475C2.375 4.475 2.13125 4.71875 2.13125 5.01562C2.13125 5.3125 2.375 5.55625 2.67188 5.55625C2.96875 5.55625 3.2125 5.3125 3.2125 5.01562C3.2125 4.71875 2.96875 4.475 2.67188 4.475Z" fill="#FBAF00"/>
</svg>
