<svg width="12" height="12" viewBox="0 0 12 12" fill="none" xmlns="http://www.w3.org/2000/svg">
<path d="M11.9303 6.22407H10.6705H1.32946H0.0697095C0.0298755 6.22407 0 6.25643 0 6.29378V6.9112C0 6.95104 0.0323651 6.98091 0.0697095 6.98091H11.9278C11.9676 6.98091 11.9975 6.94855 11.9975 6.9112H12V6.29378C12 6.25394 11.9676 6.22407 11.9303 6.22407ZM9.71452 5.6639C9.60996 5.5444 9.45809 5.46971 9.28631 5.46971C9.22407 5.46971 9.16432 5.45228 9.11203 5.41992C9.09212 5.40747 9.07469 5.39253 9.05726 5.3751C8.99751 5.31535 8.96515 5.2332 8.96515 5.14855C8.96764 5.1361 8.96515 5.12116 8.96515 5.10871C8.94772 4.82739 8.71369 4.59585 8.43237 4.57842C8.41494 4.57842 8.4 4.57842 8.38506 4.57842C8.33776 4.58091 8.29295 4.58589 8.24813 4.59834C8.19336 4.61328 8.14108 4.61328 8.09129 4.60083C7.98174 4.57593 7.88963 4.49129 7.85726 4.37676C7.78755 4.13278 7.56349 3.961 7.30954 3.961C7.19751 3.961 7.09046 3.99336 6.99834 4.05311C6.94855 4.08548 6.89129 4.1029 6.83154 4.10539C6.79668 4.10539 6.76183 4.10042 6.72697 4.09046C6.63486 4.06058 6.56266 3.99336 6.52531 3.90373C6.43817 3.68714 6.22905 3.54772 5.99751 3.54772C5.76349 3.54772 5.55685 3.68714 5.46971 3.90373C5.43485 3.99336 5.36017 4.06058 5.26805 4.09046C5.2332 4.1029 5.19834 4.10539 5.16349 4.10539C5.10622 4.10539 5.04647 4.08548 4.99668 4.05311C4.90456 3.99336 4.79751 3.961 4.68548 3.961C4.43154 3.961 4.20498 4.13278 4.13776 4.37676C4.10539 4.49129 4.01328 4.57593 3.90373 4.60083C3.85394 4.61328 3.79917 4.61328 3.74689 4.59834C3.70207 4.58589 3.65726 4.57842 3.60996 4.57842C3.59253 4.57842 3.57759 4.57842 3.56266 4.57842C3.28133 4.59585 3.0473 4.82739 3.02988 5.10871C3.02988 5.12116 3.02988 5.1361 3.02988 5.14855C3.03237 5.2332 2.99751 5.31535 2.93776 5.3751C2.92282 5.39253 2.9029 5.40747 2.88299 5.41992C2.83071 5.45228 2.77095 5.46971 2.70871 5.46971C2.53942 5.46971 2.38506 5.5444 2.2805 5.6639C2.2332 5.71618 2.19585 5.78091 2.17095 5.85062H9.82407C9.79917 5.78091 9.76183 5.71867 9.71452 5.6639ZM0.53029 7.42905C0.542739 7.73527 0.587552 8.28299 0.744398 8.87303C0.746888 8.87801 0.746888 8.88299 0.749378 8.88797C0.756846 8.91286 0.764315 8.94025 0.771784 8.96515C0.776763 8.98008 0.779253 8.99253 0.784232 9.00498C0.789212 9.02241 0.794191 9.04232 0.80166 9.05975C0.809129 9.08216 0.819087 9.10456 0.826556 9.12697C0.831535 9.14191 0.836515 9.15934 0.843983 9.17427C0.851452 9.1917 0.858921 9.21162 0.86639 9.22905C0.871369 9.239 0.873859 9.24896 0.878838 9.25892C0.906224 9.32116 0.93361 9.38091 0.965975 9.44066C0.968465 9.44813 0.973444 9.45809 0.978423 9.46556C0.988382 9.48299 0.99834 9.50041 1.0083 9.51784C1.01328 9.5278 1.02075 9.54025 1.02822 9.5527C1.04066 9.57261 1.05311 9.59502 1.06556 9.61494C1.07552 9.63237 1.08797 9.65228 1.10041 9.66971C1.10539 9.67967 1.11286 9.68714 1.11784 9.6971C1.13527 9.7195 1.15021 9.7444 1.16763 9.7668C1.17012 9.76929 1.17012 9.77178 1.17261 9.77427C1.43154 10.1253 1.77261 10.4091 2.16349 10.6008C2.16598 10.6008 2.16846 10.6033 2.17095 10.6033C2.20083 10.6183 2.2332 10.6332 2.26307 10.6456C2.26556 10.6456 2.26805 10.6481 2.27054 10.6481C2.33527 10.6755 2.40249 10.7029 2.46971 10.7253C2.47718 10.7278 2.48216 10.7303 2.48963 10.7328C2.51452 10.7427 2.54191 10.7502 2.5668 10.7577C2.57925 10.7602 2.58921 10.7651 2.60166 10.7676C2.62158 10.7726 2.64398 10.7801 2.6639 10.7851C2.67635 10.7876 2.69129 10.7925 2.70373 10.795C2.72365 10.8 2.74606 10.805 2.76597 10.81C2.78091 10.8124 2.79336 10.8149 2.80581 10.8174C2.83568 10.8224 2.86805 10.8299 2.89793 10.8349C2.90788 10.8373 2.92033 10.8373 2.93029 10.8398C2.9527 10.8423 2.97759 10.8473 3.00249 10.8498C3.01494 10.8523 3.02988 10.8523 3.04232 10.8548C3.06473 10.8573 3.08465 10.8598 3.10705 10.8622C3.1195 10.8622 3.13444 10.8647 3.14689 10.8647C3.16929 10.8672 3.19419 10.8697 3.2166 10.8697C3.22905 10.8722 3.239 10.8722 3.25145 10.8722C3.28631 10.8747 3.32116 10.8747 3.35602 10.8747H8.639C8.67386 10.8747 8.70871 10.8747 8.74357 10.8722C8.75602 10.8722 8.76597 10.8697 8.77842 10.8697C8.80083 10.8672 8.82573 10.8672 8.84813 10.8647C8.86058 10.8647 8.87552 10.8622 8.88797 10.8622C8.91037 10.8598 8.93029 10.8573 8.9527 10.8548C8.96515 10.8523 8.98008 10.8523 8.99253 10.8498C9.01494 10.8473 9.03983 10.8448 9.06473 10.8398C9.07469 10.8373 9.08714 10.8373 9.0971 10.8349C9.12697 10.8299 9.15934 10.8249 9.18921 10.8174C9.20415 10.8149 9.2166 10.8124 9.22905 10.81C9.25145 10.805 9.27137 10.8 9.29129 10.795C9.30373 10.7925 9.31867 10.7876 9.33112 10.7851C9.35104 10.7801 9.37344 10.7726 9.39336 10.7676C9.40581 10.7651 9.41577 10.7602 9.42822 10.7577C9.4556 10.7502 9.4805 10.7402 9.50539 10.7328C9.51286 10.7303 9.51784 10.7278 9.52531 10.7253C9.59253 10.7029 9.65975 10.6755 9.72448 10.6481C9.72697 10.6481 9.72946 10.6456 9.73195 10.6456C9.76432 10.6332 9.79419 10.6183 9.82407 10.6033C9.82656 10.6033 9.82905 10.6008 9.83154 10.6008C10.2224 10.4091 10.5635 10.1253 10.8274 9.77676C10.8299 9.77427 10.8299 9.77178 10.8324 9.76929C10.8498 9.74689 10.8672 9.72199 10.8822 9.69958C10.8871 9.68963 10.8946 9.68216 10.8996 9.6722C10.912 9.65477 10.922 9.63485 10.9344 9.61743C10.9469 9.59751 10.9593 9.5751 10.9718 9.55519C10.9793 9.54274 10.9867 9.53029 10.9942 9.51784C11.0041 9.50041 11.0141 9.48299 11.0241 9.46556C11.0266 9.45809 11.0315 9.44813 11.0365 9.44066C11.0664 9.38091 11.0963 9.32116 11.1237 9.25892C11.1286 9.24896 11.1311 9.239 11.1361 9.22905C11.1436 9.21162 11.151 9.1917 11.1585 9.17427C11.1635 9.15934 11.171 9.14191 11.1759 9.12697C11.1859 9.10456 11.1934 9.08216 11.2008 9.05975C11.2058 9.04232 11.2133 9.02241 11.2183 9.00498C11.2232 8.99004 11.2257 8.97759 11.2307 8.96515C11.2382 8.94025 11.2456 8.91286 11.2531 8.88797C11.2556 8.88299 11.2556 8.87801 11.2581 8.87303C11.4149 8.28299 11.4598 7.73527 11.4722 7.42905C11.4722 7.40166 11.4747 7.37676 11.4747 7.35436H0.527801C0.527801 7.37676 0.53029 7.40166 0.53029 7.42905ZM7.60581 11.5743C7.60581 11.8083 7.79751 12 8.03154 12C8.26556 12 8.45726 11.8083 8.45726 11.5743V11.2481H7.60581V11.5743ZM4.3917 11.2481H3.54025V11.5743C3.54025 11.8083 3.73195 12 3.96598 12C4.2 12 4.3917 11.8083 4.3917 11.5743V11.2481ZM7.42158 1.74274C7.18257 1.74274 6.99087 1.93693 6.99087 2.17344C6.99087 2.40996 7.18506 2.60415 7.42158 2.60415C7.65809 2.60415 7.85228 2.40996 7.85228 2.17344C7.85228 1.93693 7.65809 1.74274 7.42158 1.74274ZM8.64398 0C8.40747 0 8.21577 0.194191 8.21577 0.430705C8.21577 0.66722 8.40747 0.861411 8.64398 0.861411C8.8805 0.861411 9.07469 0.66722 9.07469 0.430705C9.07469 0.194191 8.8805 0 8.64398 0ZM1.75519 3.1917C1.51867 3.1917 1.32448 3.38589 1.32448 3.62241C1.32448 3.85892 1.51867 4.05311 1.75519 4.05311C1.9917 4.05311 2.18589 3.85892 2.18589 3.62241C2.18589 3.38589 1.9917 3.1917 1.75519 3.1917Z" fill="white"/>
</svg>
