<svg width="16" height="16" viewBox="0 0 16 16" fill="none" xmlns="http://www.w3.org/2000/svg">
<path d="M12.6003 3.66666C12.4668 3.26659 12.1003 3 11.6667 3H4.33334C3.89975 3 3.53322 3.26659 3.39975 3.66666L2 7.33334V12.3333C2 12.6999 2.30013 13 2.66666 13H3.33334C3.69987 13 4 12.6999 4 12.3333V12H12V12.3333C12 12.6999 12.3001 13 12.6667 13H13.3333C13.6999 13 14 12.6999 14 12.3333V7.33334L12.6003 3.66666ZM4.33334 10C3.76694 10 3.33334 9.56672 3.33334 9C3.33334 8.43328 3.76694 8 4.33334 8C4.89975 8 5.33334 8.43331 5.33334 9C5.33334 9.56669 4.89975 10 4.33334 10ZM11.6667 10C11.1003 10 10.6667 9.56672 10.6667 9C10.6667 8.43328 11.1003 8 11.6667 8C12.2331 8 12.6667 8.43331 12.6667 9C12.6667 9.56669 12.2331 10 11.6667 10ZM3.33334 6.66666L4.33334 4H11.6667L12.6667 6.66666H3.33334Z" fill="#FBAF00"/>
</svg>
