<svg width="10" height="8" viewBox="0 0 10 8" fill="none" xmlns="http://www.w3.org/2000/svg">
<path d="M8.83354 0.533325C8.72232 0.213275 8.41687 0 8.05555 0H1.94445C1.58313 0 1.27768 0.213275 1.16646 0.533325L0 3.46668V7.46667C0 7.7599 0.250104 8 0.555547 8H1.11112C1.41656 8 1.66667 7.7599 1.66667 7.46667V7.2H8.33333V7.46667C8.33333 7.7599 8.58344 8 8.88888 8H9.44445C9.7499 8 10 7.7599 10 7.46667V3.46668L8.83354 0.533325ZM1.94445 5.6C1.47245 5.6 1.11112 5.25338 1.11112 4.8C1.11112 4.34662 1.47245 4 1.94445 4C2.41646 4 2.77779 4.34665 2.77779 4.8C2.77779 5.25335 2.41646 5.6 1.94445 5.6ZM8.05555 5.6C7.58354 5.6 7.22221 5.25338 7.22221 4.8C7.22221 4.34662 7.58354 4 8.05555 4C8.52755 4 8.88888 4.34665 8.88888 4.8C8.88888 5.25335 8.52755 5.6 8.05555 5.6ZM1.11112 2.93332L1.94445 0.8H8.05555L8.88888 2.93332H1.11112Z" fill="white"/>
</svg>
