<svg width="50" height="50" viewBox="0 0 50 50" fill="none" xmlns="http://www.w3.org/2000/svg">
<circle cx="25" cy="25" r="25" fill="white"/>
<path d="M36.95 39.95V37.25H31.55V34.55H36.95V31.85L41 35.9L36.95 39.95ZM24.8 17C26.2322 17 27.6057 17.5689 28.6184 18.5816C29.6311 19.5943 30.2 20.9678 30.2 22.4C30.2 23.8322 29.6311 25.2057 28.6184 26.2184C27.6057 27.2311 26.2322 27.8 24.8 27.8C23.3678 27.8 21.9943 27.2311 20.9816 26.2184C19.9689 25.2057 19.4 23.8322 19.4 22.4C19.4 20.9678 19.9689 19.5943 20.9816 18.5816C21.9943 17.5689 23.3678 17 24.8 17ZM24.8 30.5C26.3525 30.5 27.8375 30.662 29.174 30.959C28.0831 32.3746 27.4942 34.1129 27.5 35.9C27.5 36.845 27.662 37.7495 27.959 38.6H14V35.9C14 32.9165 18.833 30.5 24.8 30.5Z" fill="#00003D"/>
<path opacity="0.2" d="M32.95 33.95V31.25H27.55V28.55H32.95V25.85L37 29.9L32.95 33.95ZM20.8 11C22.2322 11 23.6057 11.5689 24.6184 12.5816C25.6311 13.5943 26.2 14.9678 26.2 16.4C26.2 17.8322 25.6311 19.2057 24.6184 20.2184C23.6057 21.2311 22.2322 21.8 20.8 21.8C19.3678 21.8 17.9943 21.2311 16.9816 20.2184C15.9689 19.2057 15.4 17.8322 15.4 16.4C15.4 14.9678 15.9689 13.5943 16.9816 12.5816C17.9943 11.5689 19.3678 11 20.8 11ZM20.8 24.5C22.3525 24.5 23.8375 24.662 25.174 24.959C24.0831 26.3746 23.4942 28.1129 23.5 29.9C23.5 30.845 23.662 31.7495 23.959 32.6H10V29.9C10 26.9165 14.833 24.5 20.8 24.5Z" fill="#00003D"/>
</svg>
