<svg width="70" height="70" viewBox="0 0 70 70" fill="none" xmlns="http://www.w3.org/2000/svg">
<path d="M16.209 10.5794L33.9875 0H51.7848L69.3993 10.5794V53.1903H16.209V10.5794Z" fill="#FBAF00"/>
<circle cx="39.094" cy="30.0388" r="10.8587" fill="white"/>
<path d="M25.6108 39.1545L26.3179 39.8616L26.9019 39.2775L26.4387 38.5936L25.6108 39.1545ZM2 62.7652L1.29289 62.0581L0.585786 62.7652L1.29289 63.4723L2 62.7652ZM7.26459 68.0298L6.55748 68.7369L7.26459 69.444L7.9717 68.7369L7.26459 68.0298ZM31.0855 44.2089L31.5783 43.3388L30.9163 42.9639L30.3784 43.5018L31.0855 44.2089ZM54.3673 30.0388C54.3673 38.4742 47.5291 45.3124 39.0937 45.3124V47.3124C48.6337 47.3124 56.3673 39.5788 56.3673 30.0388H54.3673ZM39.0937 14.7651C47.5291 14.7651 54.3673 21.6034 54.3673 30.0388H56.3673C56.3673 20.4988 48.6337 12.7651 39.0937 12.7651V14.7651ZM23.82 30.0388C23.82 21.6034 30.6583 14.7651 39.0937 14.7651V12.7651C29.5537 12.7651 21.82 20.4988 21.82 30.0388H23.82ZM26.4387 38.5936C24.7856 36.1533 23.82 33.2103 23.82 30.0388H21.82C21.82 33.6227 22.9125 36.9544 24.7828 39.7153L26.4387 38.5936ZM2.70711 63.4723L26.3179 39.8616L24.9037 38.4474L1.29289 62.0581L2.70711 63.4723ZM7.9717 67.3227L2.70711 62.0581L1.29289 63.4723L6.55748 68.7369L7.9717 67.3227ZM30.3784 43.5018L6.55748 67.3227L7.9717 68.7369L31.7926 44.916L30.3784 43.5018ZM39.0937 45.3124C36.3597 45.3124 33.7963 44.595 31.5783 43.3388L30.5927 45.0791C33.1034 46.501 36.0053 47.3124 39.0937 47.3124V45.3124Z" fill="white"/>
</svg>
