<svg width="12" height="18" viewBox="0 0 12 18" fill="none" xmlns="http://www.w3.org/2000/svg">
<path fill-rule="evenodd" clip-rule="evenodd" d="M0 5.7015C0 2.55225 2.8515 0 6 0C9.14925 0 12 2.55225 12 5.7015C12 8.54292 9.88102 11.8816 6.96992 16.4682C6.65531 16.9639 6.33144 17.4742 6 18C5.66856 17.4742 5.34469 16.9639 5.03007 16.4682C2.11898 11.8815 0 8.54292 0 5.7015ZM3.75 6C3.75 7.24275 4.75725 8.25 6 8.25C7.24275 8.25 8.25 7.24275 8.25 6C8.25 4.75725 7.24275 3.75 6 3.75C4.75725 3.75 3.75 4.75725 3.75 6Z" fill="#FBAF00"/>
</svg>
