<svg width="146" height="30" viewBox="0 0 146 30" fill="none" xmlns="http://www.w3.org/2000/svg">
<path d="M81.2336 25.51C79.9521 25.51 78.729 24.9707 77.9136 23.9521L74.0693 25.0306C75.4672 27.7868 78.3795 29.1649 81.2918 29.1649C85.369 29.1649 89.3879 26.4687 89.3879 21.136C89.3879 21.0162 89.3879 20.9563 89.3879 20.8364L85.4855 21.9149C85.0778 24.1319 83.2139 25.51 81.2336 25.51Z" fill="#FBAF00"/>
<path d="M81.2915 6.03687C78.7869 6.03687 76.3406 7.05546 74.7679 9.09265C73.7778 10.3509 73.1953 12.0286 73.1953 14.1257C73.1953 19.4584 77.2143 22.1546 81.2915 22.1546C85.3687 22.1546 89.3876 19.4584 89.3876 14.1257C89.3876 12.0286 88.8052 10.3509 87.815 9.09265C86.2423 7.05546 83.7378 6.03687 81.2915 6.03687ZM81.2915 18.5596C79.0781 18.5596 77.0395 16.9418 77.0395 14.1257C77.0395 11.3096 79.0781 9.69183 81.2915 9.69183C83.5048 9.69183 85.5434 11.3096 85.5434 14.1257C85.5434 16.8819 83.4466 18.5596 81.2915 18.5596Z" fill="#FBAF00"/>
<path d="M10.426 12.8675V21.6754H14.2119V11.3696C14.2119 8.13405 12.1733 5.97703 8.96983 5.97703C6.81474 5.97703 4.95088 6.99562 3.84421 8.79314V0.165039H0V21.6754H3.78597V13.946C3.78597 11.3696 5.3586 9.63199 7.45545 9.63199C9.37755 9.63199 10.426 10.8903 10.426 12.8675Z" fill="#FBAF00"/>
<path d="M23.8224 22.0947C27.8995 22.0947 31.9185 19.3984 31.9185 14.0658C31.9185 8.73315 27.8995 6.03687 23.8224 6.03687C19.7452 6.03687 15.7262 8.73315 15.7262 14.0658C15.668 19.3984 19.7452 22.0947 23.8224 22.0947ZM23.8224 9.63191C26.0357 9.63191 28.0743 11.2497 28.0743 14.0658C28.0743 16.8819 26.0357 18.4997 23.8224 18.4997C21.609 18.4997 19.5704 16.8819 19.5704 14.0658C19.5122 11.2497 21.609 9.63191 23.8224 9.63191Z" fill="#FBAF00"/>
<path d="M42.4015 12.3283V21.7353H46.1874V13.2271C46.1874 10.7105 47.4106 9.39234 49.0415 9.39234C50.6724 9.39234 51.3713 10.4709 51.3713 12.2684V21.7353H55.1573V11.0101C55.1573 8.01424 53.4682 5.97705 50.3811 5.97705C48.5755 5.97705 46.7117 6.81589 45.6632 8.61342C45.0225 6.99565 43.7411 5.97705 41.5278 5.97705C39.9552 5.97705 38.3243 6.69606 37.2176 8.43366V6.39647H33.4316V21.6754H37.2176V13.1671C37.2176 10.7105 38.5573 9.39234 40.0134 9.39234C41.6443 9.39234 42.4015 10.4709 42.4015 12.3283Z" fill="#FBAF00"/>
<path d="M64.3021 22.0948C67.6221 22.0948 69.8354 20.5969 71.2915 17.6609H67.3308C66.5736 18.3799 65.6417 18.7994 64.3603 18.7994C62.147 18.7994 60.5161 17.3014 60.2831 14.9647H71.6993V13.5866C71.6993 9.15267 68.7287 5.97705 64.4768 5.97705C60.1666 5.97705 56.6719 9.21259 56.6719 14.006C56.6719 18.9192 60.1666 22.0948 64.3021 22.0948ZM64.3603 8.97292C66.4572 8.97292 67.9133 10.2312 68.2628 12.1485H60.2831C60.8073 10.351 62.38 8.97292 64.3603 8.97292Z" fill="#FBAF00"/>
<path d="M108.143 8.31377C107.328 6.87576 105.697 6.03691 103.484 6.03691C99.8144 6.03691 96.2031 9.03278 96.2031 14.0658C96.2031 19.0989 99.4649 22.0948 103.484 22.0948C105.697 22.0948 107.386 20.8964 108.143 19.5183V21.6754H111.929V1.60303H108.143V8.31377ZM104.241 18.4997C101.853 18.4997 100.047 16.6423 100.047 14.0658C100.047 11.4894 101.853 9.63196 104.241 9.63196C106.629 9.63196 108.435 11.4894 108.435 14.0658C108.376 16.6423 106.629 18.4997 104.241 18.4997Z" fill="#FBAF00"/>
<path d="M125.381 8.31377C124.565 6.87576 122.934 6.03691 120.721 6.03691C117.052 6.03691 113.44 9.03278 113.44 14.0658C113.44 19.0989 116.702 22.0948 120.721 22.0948C122.934 22.0948 124.624 20.8964 125.381 19.5183V21.6754H129.167V1.60303H125.381V8.31377ZM121.42 18.4997C119.032 18.4997 117.226 16.6423 117.226 14.0658C117.226 11.4894 119.032 9.63196 121.42 9.63196C123.808 9.63196 125.614 11.4894 125.614 14.0658C125.614 16.6423 123.808 18.4997 121.42 18.4997Z" fill="#FBAF00"/>
<path d="M94.6854 6.32349H92.1808H90.8994V20.2671V21.7157H94.6854V19.1805V15.9814V6.32349Z" fill="#FBAF00"/>
<path d="M91.8309 5.01848C92.1222 5.19823 92.4716 5.25814 92.8211 5.25814C93.986 5.25814 94.9179 4.29947 94.9179 3.10112C94.9179 1.90277 93.986 0.944092 92.8211 0.944092C92.0639 0.944092 91.4232 1.36351 91.0155 1.96269C90.7825 2.32219 90.666 2.6817 90.666 3.10112C90.666 3.93996 91.132 4.65897 91.8309 5.01848Z" fill="#FBAF00"/>
<path d="M141.689 6.3834L138.02 16.2698L134.176 6.3834H129.924L135.574 20.5838C135.865 21.3627 135.865 22.2016 135.632 22.9805L135.574 23.1603C135.515 23.3999 135.399 23.5797 135.341 23.6995C135.282 23.8194 135.166 23.9392 135.108 24.059C134.467 24.9578 133.419 25.497 132.37 25.6169C132.254 25.6169 132.079 25.6169 131.962 25.6169C131.788 25.6169 131.613 25.6169 131.38 25.557V28.9723C131.555 28.9723 131.729 28.9723 131.962 28.9723C133.71 28.9723 135.399 28.433 136.797 27.4144C137.612 26.7553 138.311 25.9165 138.777 24.8979C138.777 24.8979 138.777 24.8979 138.777 24.838C138.835 24.7181 138.835 24.6582 138.894 24.5384C138.894 24.4785 138.952 24.4185 138.952 24.3586L146 6.32349H141.689V6.3834Z" fill="#FBAF00"/>
</svg>
