<svg width="74" height="53" viewBox="0 0 74 53" fill="none" xmlns="http://www.w3.org/2000/svg">
<path d="M0.981445 17.8638L64.1379 0.941052L68.7398 18.1156L73.3417 35.2902L65.9097 37.2815L54.8305 40.2502L32.5079 46.2316L10.1853 52.2129L0.981445 17.8638Z" fill="#FBAF00"/>
<path d="M62.9833 12.9602L63.9492 12.7014L63.6904 11.7355L62.7244 11.9943L62.9833 12.9602ZM57.1295 9.58051L58.0954 9.3217L57.8366 8.35577L56.8707 8.61459L57.1295 9.58051ZM11.3706 21.8416L11.1118 20.8757L10.1458 21.1345L10.4047 22.1004L11.3706 21.8416ZM11.3706 21.8416L12.3365 21.5828L12.3365 21.5828L11.3706 21.8416ZM7.99096 27.6954L7.73213 26.7294L6.76622 26.9883L7.02503 27.9542L7.99096 27.6954ZM11.3399 40.1938L10.374 40.4527L10.6328 41.4186L11.5987 41.1598L11.3399 40.1938ZM17.1936 43.5735L16.2277 43.8323L17.1936 43.5735ZM17.1937 43.5736L16.2277 43.8324L16.4866 44.7983L17.4525 44.5395L17.1937 43.5736ZM32.014 39.6025L31.7551 38.6366L32.014 39.6025ZM62.9526 31.3125L63.2114 32.2784L64.1773 32.0196L63.9185 31.0537L62.9526 31.3125ZM66.3322 25.4587L66.591 26.4246L67.557 26.1658L67.2981 25.1999L66.3322 25.4587ZM64.6577 19.2095L63.6918 19.4683L63.6918 19.4683L64.6577 19.2095ZM56.1636 9.83936C56.9897 12.9226 60.1589 14.7523 63.2421 13.9261L62.7244 11.9943C60.7082 12.5345 58.6357 11.338 58.0954 9.32173L56.1636 9.83936ZM56.1636 9.83933L56.1636 9.83936L58.0954 9.32173L58.0954 9.3217L56.1636 9.83933ZM11.6294 22.8075L57.3883 10.5464L56.8707 8.61459L11.1118 20.8757L11.6294 22.8075ZM12.3365 21.5828L12.3365 21.5828L10.4047 22.1004L10.4047 22.1004L12.3365 21.5828ZM8.24978 28.6613C11.333 27.8351 13.1627 24.666 12.3365 21.5828L10.4047 22.1004C10.9449 24.1167 9.74839 26.1892 7.73213 26.7294L8.24978 28.6613ZM12.3058 39.935L8.95688 27.4365L7.02503 27.9542L10.374 40.4527L12.3058 39.935ZM18.1596 43.3147C17.3334 40.2315 14.1643 38.4018 11.0811 39.2279L11.5987 41.1598C13.615 40.6195 15.6875 41.8161 16.2277 43.8323L18.1596 43.3147ZM18.1596 43.3148L18.1596 43.3147L16.2277 43.8323L16.2277 43.8324L18.1596 43.3148ZM31.7551 38.6366L16.9348 42.6076L17.4525 44.5395L32.2728 40.5684L31.7551 38.6366ZM51.1921 33.4284L31.7551 38.6366L32.2728 40.5684L51.7098 35.3603L51.1921 33.4284ZM60.8392 30.8435L51.1921 33.4284L51.7098 35.3603L61.3568 32.7754L60.8392 30.8435ZM62.6937 30.3466L60.8392 30.8435L61.3568 32.7754L63.2114 32.2784L62.6937 30.3466ZM63.9185 31.0537L63.9185 31.0537C63.9185 31.0537 63.9185 31.0537 63.9185 31.0537C63.9185 31.0537 63.9185 31.0537 63.9185 31.0537L63.9185 31.0537C63.9185 31.0537 63.9185 31.0537 63.9185 31.0537C63.9185 31.0537 63.9185 31.0537 63.9185 31.0537L63.9185 31.0537C63.9185 31.0537 63.9185 31.0537 63.9185 31.0537C63.9185 31.0537 63.9185 31.0537 63.9185 31.0537C63.9185 31.0537 63.9185 31.0537 63.9185 31.0537C63.9185 31.0537 63.9185 31.0537 63.9185 31.0537C63.9185 31.0537 63.9185 31.0537 63.9185 31.0537C63.9185 31.0537 63.9185 31.0537 63.9185 31.0537C63.9185 31.0537 63.9185 31.0537 63.9185 31.0537C63.9185 31.0537 63.9185 31.0537 63.9185 31.0537C63.9185 31.0537 63.9185 31.0537 63.9185 31.0537C63.9185 31.0537 63.9185 31.0537 63.9185 31.0537C63.9185 31.0537 63.9185 31.0537 63.9185 31.0537C63.9185 31.0537 63.9185 31.0537 63.9185 31.0537C63.9185 31.0537 63.9185 31.0537 63.9185 31.0537C63.9185 31.0537 63.9185 31.0537 63.9185 31.0537L63.9185 31.0537C63.9185 31.0537 63.9185 31.0537 63.9185 31.0537C63.9185 31.0536 63.9185 31.0536 63.9185 31.0536L63.9185 31.0536C63.9185 31.0536 63.9185 31.0536 63.9185 31.0536C63.9185 31.0536 63.9185 31.0536 63.9185 31.0536L63.9185 31.0536L61.9866 31.5713L61.9866 31.5713C61.9866 31.5713 61.9866 31.5713 61.9866 31.5713C61.9866 31.5713 61.9866 31.5713 61.9866 31.5713L61.9866 31.5713C61.9866 31.5713 61.9866 31.5713 61.9866 31.5713C61.9866 31.5713 61.9866 31.5713 61.9866 31.5713L61.9866 31.5713C61.9866 31.5713 61.9866 31.5713 61.9866 31.5713C61.9866 31.5713 61.9866 31.5713 61.9866 31.5713C61.9866 31.5713 61.9866 31.5713 61.9866 31.5713C61.9866 31.5713 61.9866 31.5713 61.9866 31.5713C61.9866 31.5713 61.9866 31.5713 61.9866 31.5713C61.9866 31.5713 61.9866 31.5713 61.9866 31.5713C61.9866 31.5713 61.9866 31.5713 61.9866 31.5713C61.9866 31.5713 61.9866 31.5713 61.9866 31.5713C61.9866 31.5713 61.9866 31.5713 61.9866 31.5713C61.9866 31.5713 61.9866 31.5713 61.9866 31.5713C61.9866 31.5713 61.9866 31.5713 61.9866 31.5713C61.9866 31.5713 61.9866 31.5713 61.9866 31.5713C61.9866 31.5713 61.9866 31.5713 61.9866 31.5713C61.9866 31.5713 61.9866 31.5713 61.9866 31.5713L61.9866 31.5713C61.9866 31.5713 61.9866 31.5713 61.9866 31.5713C61.9866 31.5713 61.9866 31.5713 61.9866 31.5713L61.9866 31.5713C61.9866 31.5713 61.9866 31.5713 61.9866 31.5713C61.9866 31.5713 61.9866 31.5713 61.9866 31.5713L61.9866 31.5713L63.9185 31.0537ZM63.9185 31.0536C63.3782 29.0374 64.5748 26.9649 66.591 26.4246L66.0734 24.4928C62.9902 25.3189 61.1605 28.4881 61.9866 31.5713L63.9185 31.0536ZM63.6918 19.4683L65.3663 25.7175L67.2981 25.1999L65.6236 18.9507L63.6918 19.4683ZM62.0173 13.219L63.6918 19.4683L65.6237 18.9507L63.9492 12.7014L62.0173 13.219Z" fill="white"/>
<circle cx="37.1622" cy="26.5771" r="5.90836" transform="rotate(-15 37.1622 26.5771)" stroke="white" stroke-width="2"/>
</svg>
