<svg width="30" height="30" viewBox="0 0 30 30" fill="none" xmlns="http://www.w3.org/2000/svg">
<path d="M0 6.21167L23.1822 1.28746e-05L26.288 11.5911L29.3939 23.1822L26.6659 23.9132L22.5991 25.0029L14.4054 27.1984L6.21166 29.3939L0 6.21167Z" fill="#FBAF00"/>
<path d="M4.3336 9.61398L4.07478 8.64805L3.10888 8.90686L3.36767 9.87277L4.3336 9.61398ZM21.1304 5.1133L22.0963 4.85448L21.8375 3.88855L20.8715 4.14737L21.1304 5.1133ZM3.47449 13.1836L3.215 12.2178L2.24993 12.4771L2.50857 13.4424L3.47449 13.1836ZM5.73472 21.6188L4.7688 21.8777L5.02748 22.8431L5.99304 22.5849L5.73472 21.6188ZM8.26373 24.2807L7.2978 24.5395L8.26373 24.2807ZM8.26376 24.2809L7.29784 24.5397L7.55666 25.5056L8.52258 25.2468L8.26376 24.2809ZM13.7042 22.8231L13.4454 21.8572L13.7042 22.8231ZM20.8387 20.9114L21.0975 21.8773L20.8387 20.9114ZM24.3798 19.9626L24.121 18.9967L24.3798 19.9626ZM25.0601 19.7803L25.3189 20.7462L26.2848 20.4874L26.026 19.5215L25.0601 19.7803ZM25.9202 16.2101L26.179 17.1761L27.1449 16.9173L26.8861 15.9513L25.9202 16.2101ZM24.7901 11.9927L25.7561 11.7338L24.7901 11.9927ZM23.66 7.77499L24.6259 7.51617L24.3671 6.55024L23.4012 6.80906L23.66 7.77499ZM23.6599 7.77503L23.401 6.80911L23.6599 7.77503ZM4.59242 10.5799L21.3892 6.07922L20.8715 4.14737L4.07478 8.64805L4.59242 10.5799ZM3.73399 14.1493C4.72191 13.8838 5.20859 12.9785 5.39991 12.1837C5.60147 11.3462 5.56464 10.3447 5.29953 9.35518L3.36767 9.87277C3.56349 10.6036 3.56481 11.2612 3.45543 11.7156C3.33582 12.2126 3.16248 12.2319 3.215 12.2178L3.73399 14.1493ZM6.70065 21.36L4.44042 12.9247L2.50857 13.4424L4.7688 21.8777L6.70065 21.36ZM9.22965 24.0219C8.9645 23.0323 8.49558 22.1465 7.90224 21.522C7.33905 20.9292 6.46479 20.3885 5.4764 20.6528L5.99304 22.5849C5.94047 22.599 6.1002 22.5289 6.45231 22.8995C6.77426 23.2384 7.10195 23.8086 7.2978 24.5395L9.22965 24.0219ZM9.22969 24.022L9.22965 24.0219L7.2978 24.5395L7.29784 24.5397L9.22969 24.022ZM13.4454 21.8572L8.00495 23.3149L8.52258 25.2468L13.963 23.789L13.4454 21.8572ZM20.5799 19.9455L13.4454 21.8572L13.963 23.789L21.0975 21.8773L20.5799 19.9455ZM24.121 18.9967L20.5799 19.9455L21.0975 21.8773L24.6386 20.9285L24.121 18.9967ZM24.8013 18.8144L24.121 18.9967L24.6386 20.9285L25.3189 20.7462L24.8013 18.8144ZM26.026 19.5215L26.026 19.5215C26.026 19.5215 26.026 19.5215 26.026 19.5215C26.026 19.5215 26.026 19.5215 26.026 19.5215C26.026 19.5215 26.026 19.5215 26.026 19.5215C26.026 19.5215 26.026 19.5215 26.026 19.5215L26.026 19.5215L26.026 19.5215C26.026 19.5215 26.026 19.5215 26.026 19.5215C26.026 19.5215 26.026 19.5215 26.026 19.5215C26.026 19.5215 26.026 19.5215 26.026 19.5215C26.026 19.5215 26.026 19.5215 26.026 19.5215C26.026 19.5215 26.026 19.5215 26.026 19.5215L26.026 19.5215L26.026 19.5215C26.026 19.5215 26.026 19.5215 26.026 19.5215C26.026 19.5215 26.026 19.5215 26.026 19.5215C26.026 19.5215 26.026 19.5215 26.026 19.5215C26.026 19.5215 26.026 19.5215 26.026 19.5215L26.026 19.5215L26.026 19.5215L26.026 19.5215C26.026 19.5215 26.026 19.5215 26.026 19.5215C26.026 19.5215 26.026 19.5215 26.026 19.5215C26.026 19.5215 26.026 19.5215 26.026 19.5215C26.026 19.5215 26.026 19.5215 26.026 19.5215L26.026 19.5215L26.026 19.5215C26.026 19.5215 26.026 19.5215 26.026 19.5215C26.026 19.5215 26.026 19.5215 26.026 19.5215C26.026 19.5215 26.026 19.5215 26.026 19.5215C26.026 19.5215 26.026 19.5215 26.026 19.5215C26.026 19.5215 26.026 19.5215 26.026 19.5215L26.026 19.5215L26.026 19.5215C26.026 19.5215 26.026 19.5215 26.026 19.5214C26.026 19.5214 26.026 19.5214 26.026 19.5214C26.026 19.5214 26.026 19.5214 26.026 19.5214C26.026 19.5214 26.026 19.5214 26.026 19.5214C26.026 19.5214 26.026 19.5214 26.026 19.5214L26.026 19.5214L26.026 19.5214L26.026 19.5214C26.026 19.5214 26.026 19.5214 26.026 19.5214C26.026 19.5214 26.026 19.5214 26.026 19.5214C26.026 19.5214 26.026 19.5214 26.026 19.5214C26.026 19.5214 26.026 19.5214 26.026 19.5214L26.026 19.5214L26.026 19.5214L26.026 19.5214C26.026 19.5214 26.026 19.5214 26.026 19.5214C26.026 19.5214 26.026 19.5214 26.026 19.5214C26.026 19.5214 26.026 19.5214 26.026 19.5214C26.026 19.5214 26.026 19.5214 26.026 19.5214C26.026 19.5214 26.026 19.5214 26.026 19.5214L26.026 19.5214L26.026 19.5214C26.026 19.5214 26.026 19.5214 26.026 19.5214C26.026 19.5214 26.026 19.5214 26.026 19.5214C26.026 19.5214 26.026 19.5214 26.026 19.5214C26.026 19.5214 26.026 19.5214 26.026 19.5214C26.026 19.5214 26.026 19.5214 26.026 19.5214L26.026 19.5214L26.026 19.5214L26.026 19.5214C26.026 19.5214 26.026 19.5214 26.026 19.5214C26.026 19.5214 26.026 19.5214 26.026 19.5214C26.026 19.5214 26.026 19.5214 26.026 19.5214C26.026 19.5214 26.026 19.5214 26.026 19.5214C26.026 19.5214 26.026 19.5214 26.026 19.5214L26.026 19.5214L26.026 19.5214C26.026 19.5214 26.026 19.5214 26.026 19.5214C26.026 19.5214 26.026 19.5214 26.026 19.5214C26.026 19.5214 26.026 19.5214 26.026 19.5214C26.026 19.5214 26.026 19.5214 26.026 19.5214C26.026 19.5214 26.026 19.5214 26.026 19.5214L26.026 19.5214L26.026 19.5214L26.026 19.5214C26.026 19.5214 26.026 19.5214 26.026 19.5214C26.026 19.5214 26.026 19.5214 26.026 19.5214C26.026 19.5214 26.026 19.5214 26.026 19.5214C26.026 19.5214 26.026 19.5214 26.026 19.5214C26.026 19.5214 26.026 19.5214 26.026 19.5214L26.026 19.5214L26.026 19.5214L26.026 19.5214C26.026 19.5214 26.026 19.5214 26.026 19.5214C26.026 19.5214 26.026 19.5214 26.026 19.5214C26.026 19.5214 26.026 19.5214 26.026 19.5214C26.026 19.5214 26.026 19.5214 26.026 19.5214C26.026 19.5214 26.026 19.5214 26.026 19.5214L26.026 19.5214L26.026 19.5214C26.026 19.5214 26.026 19.5214 26.026 19.5214C26.026 19.5214 26.026 19.5214 26.026 19.5214C26.026 19.5214 26.026 19.5214 26.026 19.5214C26.026 19.5214 26.026 19.5214 26.026 19.5214C26.026 19.5214 26.026 19.5214 26.026 19.5214L26.026 19.5214L26.026 19.5214L26.026 19.5214C26.026 19.5214 26.026 19.5214 26.026 19.5214C26.026 19.5214 26.026 19.5214 26.026 19.5214C26.026 19.5214 26.026 19.5214 26.026 19.5214C26.026 19.5214 26.026 19.5214 26.026 19.5214C26.026 19.5214 26.026 19.5214 26.026 19.5214L26.026 19.5214L26.026 19.5214C26.026 19.5214 26.026 19.5214 26.026 19.5214C26.026 19.5214 26.026 19.5214 26.026 19.5214C26.026 19.5214 26.026 19.5214 26.026 19.5214C26.026 19.5214 26.026 19.5214 26.026 19.5214C26.026 19.5214 26.026 19.5214 26.026 19.5214L26.026 19.5214L26.026 19.5214L26.026 19.5214C26.026 19.5214 26.026 19.5214 26.026 19.5214C26.026 19.5214 26.026 19.5214 26.026 19.5214C26.026 19.5214 26.026 19.5214 26.026 19.5214C26.026 19.5214 26.026 19.5214 26.026 19.5214L26.026 19.5214L26.026 19.5214L26.026 19.5214C26.026 19.5214 26.026 19.5214 26.026 19.5214C26.026 19.5214 26.026 19.5214 26.026 19.5214C26.026 19.5214 26.026 19.5214 26.026 19.5214C26.026 19.5214 26.026 19.5214 26.026 19.5214C26.026 19.5214 26.026 19.5214 26.026 19.5214L26.026 19.5214L26.026 19.5214C26.026 19.5214 26.026 19.5214 26.026 19.5214C26.026 19.5214 26.026 19.5214 26.026 19.5214C26.026 19.5214 26.026 19.5214 26.026 19.5214C26.026 19.5214 26.026 19.5214 26.026 19.5214C26.026 19.5214 26.026 19.5214 26.026 19.5214L26.026 19.5214L26.026 19.5214C26.026 19.5214 26.026 19.5214 26.026 19.5214C26.026 19.5214 26.026 19.5214 26.026 19.5214C26.026 19.5214 26.026 19.5214 26.026 19.5214C26.026 19.5214 26.026 19.5214 26.026 19.5214L26.026 19.5213L26.026 19.5213L26.026 19.5213C26.026 19.5213 26.026 19.5213 26.026 19.5213C26.026 19.5213 26.026 19.5213 26.026 19.5213C26.026 19.5213 26.026 19.5213 26.026 19.5213C26.026 19.5213 26.026 19.5213 26.026 19.5213L26.026 19.5213L26.026 19.5213C26.026 19.5213 26.026 19.5213 26.026 19.5213C26.026 19.5213 26.026 19.5213 26.026 19.5213C26.026 19.5213 26.026 19.5213 26.026 19.5213C26.026 19.5213 26.026 19.5213 26.026 19.5213C26.026 19.5213 26.026 19.5213 26.026 19.5213L26.026 19.5213L26.026 19.5213C26.026 19.5213 26.026 19.5213 26.026 19.5213C26.026 19.5213 26.026 19.5213 26.026 19.5213C26.026 19.5213 26.026 19.5213 26.026 19.5213C26.026 19.5213 26.026 19.5213 26.026 19.5213L26.026 19.5213L24.0941 20.039L24.0941 20.039C24.0941 20.039 24.0941 20.039 24.0941 20.039C24.0941 20.039 24.0941 20.039 24.0941 20.039C24.0941 20.039 24.0941 20.039 24.0941 20.039C24.0941 20.039 24.0941 20.039 24.0941 20.039L24.0941 20.039L24.0941 20.039C24.0941 20.039 24.0941 20.039 24.0941 20.039C24.0941 20.039 24.0941 20.039 24.0941 20.039C24.0941 20.039 24.0941 20.039 24.0941 20.039C24.0941 20.039 24.0941 20.039 24.0941 20.039C24.0941 20.039 24.0941 20.039 24.0941 20.039L24.0941 20.039L24.0941 20.039C24.0941 20.039 24.0941 20.039 24.0941 20.039C24.0941 20.039 24.0941 20.039 24.0941 20.039C24.0941 20.039 24.0941 20.039 24.0941 20.039C24.0941 20.039 24.0941 20.039 24.0941 20.039L24.0941 20.039L24.0941 20.039L24.0941 20.039C24.0941 20.039 24.0941 20.039 24.0941 20.039C24.0941 20.039 24.0941 20.039 24.0941 20.039C24.0941 20.039 24.0941 20.039 24.0941 20.039C24.0941 20.039 24.0941 20.039 24.0941 20.039L24.0941 20.039L24.0941 20.039C24.0941 20.039 24.0941 20.039 24.0941 20.039C24.0941 20.039 24.0941 20.039 24.0941 20.039C24.0941 20.039 24.0941 20.039 24.0941 20.039C24.0941 20.039 24.0941 20.039 24.0941 20.039C24.0941 20.039 24.0941 20.039 24.0941 20.039L24.0941 20.039L24.0941 20.039C24.0941 20.039 24.0941 20.039 24.0941 20.039C24.0941 20.039 24.0941 20.039 24.0941 20.039C24.0941 20.039 24.0941 20.039 24.0941 20.039C24.0941 20.039 24.0941 20.039 24.0941 20.039C24.0941 20.039 24.0941 20.039 24.0941 20.039L24.0941 20.039L24.0941 20.039L24.0941 20.039C24.0941 20.039 24.0941 20.039 24.0941 20.039C24.0941 20.039 24.0941 20.039 24.0941 20.039C24.0941 20.039 24.0941 20.039 24.0941 20.039C24.0941 20.039 24.0941 20.039 24.0941 20.039L24.0941 20.039L24.0941 20.039L24.0941 20.039C24.0941 20.039 24.0941 20.039 24.0941 20.039C24.0941 20.039 24.0941 20.039 24.0941 20.039C24.0941 20.039 24.0941 20.039 24.0941 20.039C24.0941 20.039 24.0941 20.039 24.0941 20.039C24.0941 20.039 24.0941 20.039 24.0941 20.039L24.0941 20.039L24.0941 20.039C24.0941 20.039 24.0941 20.039 24.0941 20.039C24.0941 20.039 24.0941 20.039 24.0941 20.039C24.0941 20.039 24.0941 20.039 24.0941 20.039C24.0941 20.039 24.0941 20.039 24.0941 20.039C24.0941 20.039 24.0941 20.039 24.0941 20.039L24.0941 20.039L24.0941 20.039L24.0941 20.039C24.0941 20.039 24.0941 20.039 24.0941 20.039C24.0941 20.039 24.0941 20.039 24.0941 20.039C24.0941 20.039 24.0941 20.039 24.0941 20.039C24.0941 20.039 24.0941 20.039 24.0941 20.039C24.0941 20.039 24.0941 20.039 24.0941 20.039L24.0941 20.039L24.0941 20.039C24.0941 20.039 24.0941 20.039 24.0941 20.039C24.0941 20.039 24.0941 20.039 24.0941 20.039C24.0941 20.039 24.0941 20.039 24.0941 20.039C24.0941 20.039 24.0941 20.039 24.0941 20.039C24.0941 20.039 24.0941 20.039 24.0941 20.039L24.0941 20.039L24.0941 20.039L24.0941 20.039C24.0941 20.039 24.0941 20.039 24.0941 20.039C24.0941 20.039 24.0941 20.039 24.0941 20.039C24.0941 20.039 24.0941 20.039 24.0941 20.039C24.0941 20.039 24.0941 20.039 24.0941 20.039C24.0941 20.039 24.0941 20.039 24.0941 20.039L24.0941 20.039L24.0941 20.039L24.0941 20.039C24.0941 20.039 24.0941 20.039 24.0941 20.0391C24.0941 20.0391 24.0941 20.0391 24.0941 20.0391C24.0941 20.0391 24.0941 20.0391 24.0941 20.0391C24.0941 20.0391 24.0941 20.0391 24.0941 20.0391C24.0941 20.0391 24.0941 20.0391 24.0941 20.0391L24.0941 20.0391L24.0941 20.0391C24.0941 20.0391 24.0941 20.0391 24.0941 20.0391C24.0941 20.0391 24.0941 20.0391 24.0941 20.0391C24.0941 20.0391 24.0941 20.0391 24.0941 20.0391C24.0941 20.0391 24.0941 20.0391 24.0941 20.0391C24.0941 20.0391 24.0941 20.0391 24.0941 20.0391L24.0941 20.0391L24.0941 20.0391L24.0942 20.0391C24.0942 20.0391 24.0942 20.0391 24.0942 20.0391C24.0942 20.0391 24.0942 20.0391 24.0942 20.0391C24.0942 20.0391 24.0942 20.0391 24.0942 20.0391C24.0942 20.0391 24.0942 20.0391 24.0942 20.0391C24.0942 20.0391 24.0942 20.0391 24.0942 20.0391L24.0942 20.0391L24.0942 20.0391C24.0942 20.0391 24.0942 20.0391 24.0942 20.0391C24.0942 20.0391 24.0942 20.0391 24.0942 20.0391C24.0942 20.0391 24.0942 20.0391 24.0942 20.0391C24.0942 20.0391 24.0942 20.0391 24.0942 20.0391C24.0942 20.0391 24.0942 20.0391 24.0942 20.0391L24.0942 20.0391L24.0942 20.0391L24.0942 20.0391C24.0942 20.0391 24.0942 20.0391 24.0942 20.0391C24.0942 20.0391 24.0942 20.0391 24.0942 20.0391C24.0942 20.0391 24.0942 20.0391 24.0942 20.0391C24.0942 20.0391 24.0942 20.0391 24.0942 20.0391L24.0942 20.0391L24.0942 20.0391L24.0942 20.0391C24.0942 20.0391 24.0942 20.0391 24.0942 20.0391C24.0942 20.0391 24.0942 20.0391 24.0942 20.0391C24.0942 20.0391 24.0942 20.0391 24.0942 20.0391C24.0942 20.0391 24.0942 20.0391 24.0942 20.0391C24.0942 20.0391 24.0942 20.0391 24.0942 20.0391L24.0942 20.0391L24.0942 20.0391C24.0942 20.0391 24.0942 20.0391 24.0942 20.0391C24.0942 20.0391 24.0942 20.0391 24.0942 20.0391C24.0942 20.0391 24.0942 20.0391 24.0942 20.0391C24.0942 20.0391 24.0942 20.0391 24.0942 20.0391C24.0942 20.0391 24.0942 20.0391 24.0942 20.0391L24.0942 20.0391L24.0942 20.0391C24.0942 20.0391 24.0942 20.0391 24.0942 20.0391C24.0942 20.0391 24.0942 20.0391 24.0942 20.0391C24.0942 20.0391 24.0942 20.0391 24.0942 20.0391C24.0942 20.0391 24.0942 20.0391 24.0942 20.0391L24.0942 20.0391L24.0942 20.0391L24.0942 20.0391C24.0942 20.0391 24.0942 20.0391 24.0942 20.0391C24.0942 20.0391 24.0942 20.0391 24.0942 20.0391C24.0942 20.0391 24.0942 20.0391 24.0942 20.0391C24.0942 20.0391 24.0942 20.0391 24.0942 20.0391L24.0942 20.0391L24.0942 20.0391C24.0942 20.0391 24.0942 20.0391 24.0942 20.0391C24.0942 20.0391 24.0942 20.0391 24.0942 20.0391C24.0942 20.0391 24.0942 20.0391 24.0942 20.0391C24.0942 20.0391 24.0942 20.0391 24.0942 20.0391C24.0942 20.0391 24.0942 20.0391 24.0942 20.0391L24.0942 20.0391L24.0942 20.0391C24.0942 20.0391 24.0942 20.0391 24.0942 20.0391C24.0942 20.0391 24.0942 20.0391 24.0942 20.0391C24.0942 20.0391 24.0942 20.0391 24.0942 20.0391C24.0942 20.0391 24.0942 20.0391 24.0942 20.0391L24.0942 20.0391L26.026 19.5215ZM26.026 19.5213C25.8301 18.7903 25.8288 18.1325 25.9382 17.6781C26.0579 17.1811 26.2313 17.1621 26.1786 17.1762L25.661 15.2443C24.6724 15.5092 24.1853 16.4148 23.9938 17.2098C23.7921 18.0474 23.8289 19.0492 24.0941 20.039L26.026 19.5213ZM26.1786 17.1762C26.1786 17.1762 26.1786 17.1762 26.1786 17.1762L26.1786 17.1762L26.1786 17.1762C26.1786 17.1762 26.1786 17.1762 26.1786 17.1762C26.1786 17.1762 26.1786 17.1762 26.1786 17.1762L26.1786 17.1762L26.1786 17.1762C26.1786 17.1762 26.1786 17.1762 26.1786 17.1762C26.1786 17.1762 26.1786 17.1762 26.1786 17.1762C26.1786 17.1762 26.1786 17.1762 26.1786 17.1762L26.1786 17.1762C26.1786 17.1762 26.1786 17.1762 26.1786 17.1762C26.1786 17.1762 26.1786 17.1762 26.1786 17.1762C26.1786 17.1762 26.1786 17.1762 26.1786 17.1762L26.1786 17.1762C26.1786 17.1762 26.1786 17.1762 26.1786 17.1762C26.1786 17.1762 26.1786 17.1762 26.1786 17.1762C26.1786 17.1762 26.1786 17.1762 26.1786 17.1762L26.1786 17.1762C26.1786 17.1762 26.1786 17.1762 26.1786 17.1762C26.1786 17.1762 26.1786 17.1762 26.1786 17.1762C26.1786 17.1762 26.1786 17.1762 26.1786 17.1762L26.1786 17.1762C26.1786 17.1762 26.1786 17.1762 26.1786 17.1762C26.1786 17.1762 26.1786 17.1762 26.1786 17.1762C26.1786 17.1762 26.1786 17.1762 26.1786 17.1762L26.1786 17.1762L26.1787 17.1762C26.1787 17.1762 26.1787 17.1762 26.1787 17.1762C26.1787 17.1762 26.1787 17.1762 26.1787 17.1762L26.1787 17.1762L26.1787 17.1762C26.1787 17.1762 26.1787 17.1762 26.1787 17.1762C26.1787 17.1762 26.1787 17.1762 26.1787 17.1762L26.1787 17.1762L26.1787 17.1762C26.1787 17.1762 26.1787 17.1762 26.1787 17.1762C26.1787 17.1762 26.1787 17.1762 26.1787 17.1762C26.1787 17.1762 26.1787 17.1762 26.1787 17.1762L26.1787 17.1762C26.1787 17.1762 26.1787 17.1762 26.1787 17.1762C26.1787 17.1762 26.1787 17.1762 26.1787 17.1762C26.1787 17.1762 26.1787 17.1762 26.1787 17.1762L26.1787 17.1762C26.1787 17.1762 26.1787 17.1762 26.1787 17.1762C26.1787 17.1762 26.1787 17.1762 26.1787 17.1762C26.1787 17.1762 26.1787 17.1762 26.1787 17.1762L26.1787 17.1762L26.1787 17.1762C26.1787 17.1762 26.1787 17.1762 26.1787 17.1762C26.1787 17.1762 26.1787 17.1762 26.1787 17.1762L26.1787 17.1762L26.1787 17.1762C26.1787 17.1762 26.1787 17.1762 26.1787 17.1762C26.1787 17.1762 26.1787 17.1762 26.1787 17.1762C26.1787 17.1762 26.1787 17.1762 26.1787 17.1762L26.1787 17.1762C26.1787 17.1762 26.1787 17.1762 26.1787 17.1762C26.1787 17.1762 26.1787 17.1762 26.1787 17.1762C26.1787 17.1762 26.1787 17.1762 26.1787 17.1762L26.1787 17.1762C26.1787 17.1762 26.1787 17.1762 26.1787 17.1762C26.1787 17.1762 26.1787 17.1762 26.1787 17.1762C26.1787 17.1762 26.1787 17.1762 26.1787 17.1762L26.1787 17.1762L26.1787 17.1762C26.1787 17.1762 26.1787 17.1762 26.1787 17.1762C26.1787 17.1762 26.1787 17.1762 26.1787 17.1762L26.1787 17.1762L26.1787 17.1762C26.1787 17.1762 26.1787 17.1762 26.1787 17.1762C26.1787 17.1762 26.1787 17.1762 26.1787 17.1762C26.1787 17.1762 26.1787 17.1762 26.1787 17.1762L26.1787 17.1761C26.1787 17.1761 26.1787 17.1761 26.1787 17.1761C26.1787 17.1761 26.1787 17.1761 26.1787 17.1761C26.1787 17.1761 26.1787 17.1761 26.1787 17.1761L26.1787 17.1761C26.1787 17.1761 26.1787 17.1761 26.1787 17.1761C26.1787 17.1761 26.1787 17.1761 26.1787 17.1761C26.1787 17.1761 26.1787 17.1761 26.1787 17.1761L26.1788 17.1761L26.1788 17.1761C26.1788 17.1761 26.1788 17.1761 26.1788 17.1761C26.1788 17.1761 26.1788 17.1761 26.1788 17.1761C26.1788 17.1761 26.1788 17.1761 26.1788 17.1761L26.1788 17.1761C26.1788 17.1761 26.1788 17.1761 26.1788 17.1761C26.1788 17.1761 26.1788 17.1761 26.1788 17.1761C26.1788 17.1761 26.1788 17.1761 26.1788 17.1761L26.1788 17.1761C26.1788 17.1761 26.1788 17.1761 26.1788 17.1761C26.1788 17.1761 26.1788 17.1761 26.1788 17.1761C26.1788 17.1761 26.1788 17.1761 26.1788 17.1761L26.1788 17.1761L26.1788 17.1761C26.1788 17.1761 26.1788 17.1761 26.1788 17.1761C26.1788 17.1761 26.1788 17.1761 26.1788 17.1761C26.1788 17.1761 26.1788 17.1761 26.1788 17.1761L26.1788 17.1761C26.1788 17.1761 26.1788 17.1761 26.1788 17.1761C26.1788 17.1761 26.1788 17.1761 26.1788 17.1761C26.1788 17.1761 26.1788 17.1761 26.1788 17.1761L26.1788 17.1761C26.1788 17.1761 26.1788 17.1761 26.1788 17.1761C26.1788 17.1761 26.1788 17.1761 26.1788 17.1761C26.1788 17.1761 26.1788 17.1761 26.1788 17.1761L26.1788 17.1761L26.1788 17.1761C26.1788 17.1761 26.1788 17.1761 26.1788 17.1761C26.1788 17.1761 26.1788 17.1761 26.1788 17.1761C26.1788 17.1761 26.1788 17.1761 26.1788 17.1761L26.1788 17.1761C26.1788 17.1761 26.1788 17.1761 26.1788 17.1761C26.1788 17.1761 26.1788 17.1761 26.1788 17.1761C26.1788 17.1761 26.1788 17.1761 26.1788 17.1761L26.1788 17.1761C26.1788 17.1761 26.1788 17.1761 26.1788 17.1761C26.1788 17.1761 26.1788 17.1761 26.1788 17.1761C26.1788 17.1761 26.1788 17.1761 26.1788 17.1761L26.1788 17.1761L26.1788 17.1761C26.1788 17.1761 26.1788 17.1761 26.1788 17.1761C26.1788 17.1761 26.1788 17.1761 26.1788 17.1761C26.1788 17.1761 26.1788 17.1761 26.1788 17.1761L26.1788 17.1761C26.1788 17.1761 26.1788 17.1761 26.1788 17.1761C26.1788 17.1761 26.1788 17.1761 26.1788 17.1761C26.1788 17.1761 26.1788 17.1761 26.1788 17.1761L26.1788 17.1761C26.1788 17.1761 26.1788 17.1761 26.1788 17.1761C26.1788 17.1761 26.1788 17.1761 26.1788 17.1761C26.1788 17.1761 26.1788 17.1761 26.1788 17.1761L26.1788 17.1761L26.1788 17.1761C26.1788 17.1761 26.1788 17.1761 26.1789 17.1761C26.1789 17.1761 26.1789 17.1761 26.1789 17.1761C26.1789 17.1761 26.1789 17.1761 26.1789 17.1761L26.1789 17.1761C26.1789 17.1761 26.1789 17.1761 26.1789 17.1761C26.1789 17.1761 26.1789 17.1761 26.1789 17.1761C26.1789 17.1761 26.1789 17.1761 26.1789 17.1761L26.1789 17.1761C26.1789 17.1761 26.1789 17.1761 26.1789 17.1761C26.1789 17.1761 26.1789 17.1761 26.1789 17.1761C26.1789 17.1761 26.1789 17.1761 26.1789 17.1761L26.1789 17.1761L26.1789 17.1761C26.1789 17.1761 26.1789 17.1761 26.1789 17.1761C26.1789 17.1761 26.1789 17.1761 26.1789 17.1761C26.1789 17.1761 26.1789 17.1761 26.1789 17.1761L26.1789 17.1761C26.1789 17.1761 26.1789 17.1761 26.1789 17.1761C26.1789 17.1761 26.1789 17.1761 26.1789 17.1761C26.1789 17.1761 26.1789 17.1761 26.1789 17.1761L26.1789 17.1761C26.1789 17.1761 26.1789 17.1761 26.1789 17.1761C26.1789 17.1761 26.1789 17.1761 26.1789 17.1761C26.1789 17.1761 26.1789 17.1761 26.1789 17.1761L26.1789 17.1761L26.1789 17.1761C26.1789 17.1761 26.1789 17.1761 26.1789 17.1761C26.1789 17.1761 26.1789 17.1761 26.1789 17.1761L26.1789 17.1761L26.1789 17.1761C26.1789 17.1761 26.1789 17.1761 26.1789 17.1761C26.1789 17.1761 26.1789 17.1761 26.1789 17.1761C26.1789 17.1761 26.1789 17.1761 26.1789 17.1761L26.1789 17.1761C26.1789 17.1761 26.1789 17.1761 26.1789 17.1761C26.1789 17.1761 26.1789 17.1761 26.1789 17.1761C26.1789 17.1761 26.1789 17.1761 26.1789 17.1761L26.1789 17.1761C26.1789 17.1761 26.1789 17.1761 26.1789 17.1761C26.1789 17.1761 26.1789 17.1761 26.1789 17.1761C26.1789 17.1761 26.1789 17.1761 26.1789 17.1761L26.1789 17.1761L26.1789 17.1761C26.1789 17.1761 26.1789 17.1761 26.1789 17.1761C26.1789 17.1761 26.1789 17.1761 26.1789 17.1761L26.1789 17.1761L26.1789 17.1761C26.1789 17.1761 26.1789 17.1761 26.1789 17.1761C26.1789 17.1761 26.1789 17.1761 26.1789 17.1761C26.1789 17.1761 26.1789 17.1761 26.1789 17.1761L26.1789 17.1761C26.1789 17.1761 26.1789 17.1761 26.1789 17.1761C26.1789 17.1761 26.1789 17.1761 26.1789 17.1761C26.1789 17.1761 26.1789 17.1761 26.1789 17.1761L26.1789 17.1761C26.1789 17.1761 26.1789 17.1761 26.179 17.1761C26.179 17.1761 26.179 17.1761 26.179 17.1761C26.179 17.1761 26.179 17.1761 26.179 17.1761L26.179 17.1761L26.179 17.1761C26.179 17.1761 26.179 17.1761 26.179 17.1761C26.179 17.1761 26.179 17.1761 26.179 17.1761L26.179 17.1761L26.179 17.1761C26.179 17.1761 26.179 17.1761 26.179 17.1761C26.179 17.1761 26.179 17.1761 26.179 17.1761L26.179 17.1761L26.179 17.1761C26.179 17.1761 26.179 17.1761 26.179 17.1761C26.179 17.1761 26.179 17.1761 26.179 17.1761C26.179 17.1761 26.179 17.1761 26.179 17.1761L26.179 17.1761C26.179 17.1761 26.179 17.1761 26.179 17.1761C26.179 17.1761 26.179 17.1761 26.179 17.1761C26.179 17.1761 26.179 17.1761 26.179 17.1761L26.179 17.1761C26.179 17.1761 26.179 17.1761 26.179 17.1761C26.179 17.1761 26.179 17.1761 26.179 17.1761C26.179 17.1761 26.179 17.1761 26.179 17.1761L26.179 17.1761C26.179 17.1761 26.179 17.1761 26.179 17.1761C26.179 17.1761 26.179 17.1761 26.179 17.1761C26.179 17.1761 26.179 17.1761 26.179 17.1761L26.179 17.1761C26.179 17.1761 26.179 17.1761 26.179 17.1761C26.179 17.1761 26.179 17.1761 26.179 17.1761C26.179 17.1761 26.179 17.1761 26.179 17.1761L26.179 17.1761L26.179 17.1761C26.179 17.1761 26.179 17.1761 26.179 17.1761C26.179 17.1761 26.179 17.1761 26.179 17.1761L26.179 17.1761L26.179 17.1761C26.179 17.1761 26.179 17.1761 26.179 17.1761L25.6614 15.2442C25.6614 15.2442 25.6614 15.2442 25.6614 15.2442L25.6614 15.2442L25.6614 15.2442C25.6614 15.2442 25.6614 15.2442 25.6614 15.2442C25.6614 15.2442 25.6614 15.2442 25.6614 15.2442L25.6614 15.2442L25.6614 15.2442C25.6614 15.2442 25.6614 15.2442 25.6614 15.2442C25.6614 15.2442 25.6614 15.2442 25.6614 15.2442C25.6614 15.2442 25.6614 15.2442 25.6614 15.2442L25.6614 15.2442C25.6614 15.2442 25.6614 15.2442 25.6614 15.2442C25.6614 15.2442 25.6614 15.2442 25.6614 15.2442C25.6614 15.2442 25.6614 15.2442 25.6614 15.2442L25.6614 15.2442C25.6614 15.2442 25.6614 15.2442 25.6614 15.2442C25.6614 15.2442 25.6614 15.2442 25.6614 15.2442C25.6614 15.2442 25.6614 15.2442 25.6614 15.2442L25.6613 15.2442C25.6613 15.2442 25.6613 15.2442 25.6613 15.2442C25.6613 15.2442 25.6613 15.2442 25.6613 15.2442C25.6613 15.2442 25.6613 15.2442 25.6613 15.2442L25.6613 15.2442C25.6613 15.2442 25.6613 15.2442 25.6613 15.2442C25.6613 15.2442 25.6613 15.2442 25.6613 15.2442C25.6613 15.2442 25.6613 15.2442 25.6613 15.2442L25.6613 15.2442L25.6613 15.2442C25.6613 15.2442 25.6613 15.2442 25.6613 15.2442C25.6613 15.2442 25.6613 15.2442 25.6613 15.2442L25.6613 15.2442L25.6613 15.2442C25.6613 15.2442 25.6613 15.2442 25.6613 15.2442C25.6613 15.2442 25.6613 15.2442 25.6613 15.2442L25.6613 15.2442L25.6613 15.2442C25.6613 15.2442 25.6613 15.2442 25.6613 15.2442C25.6613 15.2442 25.6613 15.2442 25.6613 15.2442C25.6613 15.2442 25.6613 15.2442 25.6613 15.2442L25.6613 15.2442C25.6613 15.2442 25.6613 15.2442 25.6613 15.2442C25.6613 15.2442 25.6613 15.2442 25.6613 15.2442C25.6613 15.2442 25.6613 15.2442 25.6613 15.2442L25.6613 15.2442C25.6613 15.2442 25.6613 15.2442 25.6613 15.2442C25.6613 15.2442 25.6613 15.2442 25.6613 15.2442C25.6613 15.2442 25.6613 15.2442 25.6613 15.2442L25.6613 15.2442L25.6613 15.2442C25.6613 15.2442 25.6613 15.2442 25.6613 15.2442C25.6613 15.2442 25.6613 15.2442 25.6613 15.2442L25.6613 15.2442L25.6613 15.2442C25.6613 15.2442 25.6613 15.2442 25.6613 15.2442C25.6613 15.2442 25.6613 15.2442 25.6613 15.2442C25.6613 15.2442 25.6613 15.2442 25.6613 15.2442L25.6613 15.2442C25.6613 15.2442 25.6613 15.2442 25.6613 15.2443C25.6613 15.2443 25.6613 15.2443 25.6613 15.2443C25.6613 15.2443 25.6613 15.2443 25.6613 15.2443L25.6613 15.2443C25.6613 15.2443 25.6613 15.2443 25.6613 15.2443C25.6613 15.2443 25.6613 15.2443 25.6613 15.2443C25.6613 15.2443 25.6613 15.2443 25.6613 15.2443L25.6613 15.2443L25.6613 15.2443C25.6613 15.2443 25.6613 15.2443 25.6613 15.2443C25.6613 15.2443 25.6613 15.2443 25.6613 15.2443L25.6613 15.2443L25.6613 15.2443C25.6613 15.2443 25.6613 15.2443 25.6613 15.2443C25.6613 15.2443 25.6613 15.2443 25.6613 15.2443C25.6612 15.2443 25.6612 15.2443 25.6612 15.2443L25.6612 15.2443C25.6612 15.2443 25.6612 15.2443 25.6612 15.2443C25.6612 15.2443 25.6612 15.2443 25.6612 15.2443C25.6612 15.2443 25.6612 15.2443 25.6612 15.2443L25.6612 15.2443C25.6612 15.2443 25.6612 15.2443 25.6612 15.2443C25.6612 15.2443 25.6612 15.2443 25.6612 15.2443C25.6612 15.2443 25.6612 15.2443 25.6612 15.2443L25.6612 15.2443L25.6612 15.2443C25.6612 15.2443 25.6612 15.2443 25.6612 15.2443C25.6612 15.2443 25.6612 15.2443 25.6612 15.2443C25.6612 15.2443 25.6612 15.2443 25.6612 15.2443L25.6612 15.2443C25.6612 15.2443 25.6612 15.2443 25.6612 15.2443C25.6612 15.2443 25.6612 15.2443 25.6612 15.2443C25.6612 15.2443 25.6612 15.2443 25.6612 15.2443L25.6612 15.2443C25.6612 15.2443 25.6612 15.2443 25.6612 15.2443C25.6612 15.2443 25.6612 15.2443 25.6612 15.2443C25.6612 15.2443 25.6612 15.2443 25.6612 15.2443L25.6612 15.2443L25.6612 15.2443C25.6612 15.2443 25.6612 15.2443 25.6612 15.2443C25.6612 15.2443 25.6612 15.2443 25.6612 15.2443C25.6612 15.2443 25.6612 15.2443 25.6612 15.2443L25.6612 15.2443C25.6612 15.2443 25.6612 15.2443 25.6612 15.2443C25.6612 15.2443 25.6612 15.2443 25.6612 15.2443C25.6612 15.2443 25.6612 15.2443 25.6612 15.2443L25.6612 15.2443C25.6612 15.2443 25.6612 15.2443 25.6612 15.2443C25.6612 15.2443 25.6612 15.2443 25.6612 15.2443C25.6612 15.2443 25.6612 15.2443 25.6612 15.2443L25.6612 15.2443L25.6612 15.2443C25.6612 15.2443 25.6612 15.2443 25.6612 15.2443C25.6612 15.2443 25.6612 15.2443 25.6612 15.2443C25.6612 15.2443 25.6612 15.2443 25.6612 15.2443L25.6612 15.2443C25.6612 15.2443 25.6612 15.2443 25.6612 15.2443C25.6612 15.2443 25.6612 15.2443 25.6612 15.2443C25.6612 15.2443 25.6612 15.2443 25.6612 15.2443L25.6612 15.2443C25.6612 15.2443 25.6612 15.2443 25.6612 15.2443C25.6612 15.2443 25.6612 15.2443 25.6612 15.2443C25.6612 15.2443 25.6612 15.2443 25.6612 15.2443L25.6612 15.2443L25.6612 15.2443C25.6612 15.2443 25.6612 15.2443 25.6612 15.2443C25.6612 15.2443 25.6612 15.2443 25.6612 15.2443C25.6612 15.2443 25.6612 15.2443 25.6612 15.2443L25.6612 15.2443C25.6612 15.2443 25.6612 15.2443 25.6611 15.2443C25.6611 15.2443 25.6611 15.2443 25.6611 15.2443C25.6611 15.2443 25.6611 15.2443 25.6611 15.2443L25.6611 15.2443C25.6611 15.2443 25.6611 15.2443 25.6611 15.2443C25.6611 15.2443 25.6611 15.2443 25.6611 15.2443C25.6611 15.2443 25.6611 15.2443 25.6611 15.2443L25.6611 15.2443L25.6611 15.2443C25.6611 15.2443 25.6611 15.2443 25.6611 15.2443C25.6611 15.2443 25.6611 15.2443 25.6611 15.2443C25.6611 15.2443 25.6611 15.2443 25.6611 15.2443L25.6611 15.2443C25.6611 15.2443 25.6611 15.2443 25.6611 15.2443C25.6611 15.2443 25.6611 15.2443 25.6611 15.2443C25.6611 15.2443 25.6611 15.2443 25.6611 15.2443L25.6611 15.2443C25.6611 15.2443 25.6611 15.2443 25.6611 15.2443C25.6611 15.2443 25.6611 15.2443 25.6611 15.2443C25.6611 15.2443 25.6611 15.2443 25.6611 15.2443L25.6611 15.2443L25.6611 15.2443C25.6611 15.2443 25.6611 15.2443 25.6611 15.2443C25.6611 15.2443 25.6611 15.2443 25.6611 15.2443C25.6611 15.2443 25.6611 15.2443 25.6611 15.2443L25.6611 15.2443C25.6611 15.2443 25.6611 15.2443 25.6611 15.2443C25.6611 15.2443 25.6611 15.2443 25.6611 15.2443C25.6611 15.2443 25.6611 15.2443 25.6611 15.2443L25.6611 15.2443C25.6611 15.2443 25.6611 15.2443 25.6611 15.2443C25.6611 15.2443 25.6611 15.2443 25.6611 15.2443C25.6611 15.2443 25.6611 15.2443 25.6611 15.2443L25.6611 15.2443L25.6611 15.2443C25.6611 15.2443 25.6611 15.2443 25.6611 15.2443C25.6611 15.2443 25.6611 15.2443 25.6611 15.2443L25.6611 15.2443L25.6611 15.2443C25.6611 15.2443 25.6611 15.2443 25.6611 15.2443C25.6611 15.2443 25.6611 15.2443 25.6611 15.2443C25.6611 15.2443 25.6611 15.2443 25.6611 15.2443L25.6611 15.2443C25.6611 15.2443 25.6611 15.2443 25.6611 15.2443C25.6611 15.2443 25.6611 15.2443 25.6611 15.2443C25.6611 15.2443 25.6611 15.2443 25.6611 15.2443L25.6611 15.2443C25.6611 15.2443 25.6611 15.2443 25.6611 15.2443C25.6611 15.2443 25.6611 15.2443 25.6611 15.2443C25.6611 15.2443 25.6611 15.2443 25.6611 15.2443L25.6611 15.2443L25.6611 15.2443C25.6611 15.2443 25.6611 15.2443 25.6611 15.2443C25.6611 15.2443 25.6611 15.2443 25.6611 15.2443L25.661 15.2443L25.661 15.2443C25.661 15.2443 25.661 15.2443 25.661 15.2443C25.661 15.2443 25.661 15.2443 25.661 15.2443C25.661 15.2443 25.661 15.2443 25.661 15.2443L25.661 15.2443C25.661 15.2443 25.661 15.2443 25.661 15.2443C25.661 15.2443 25.661 15.2443 25.661 15.2443C25.661 15.2443 25.661 15.2443 25.661 15.2443L25.661 15.2443C25.661 15.2443 25.661 15.2443 25.661 15.2443C25.661 15.2443 25.661 15.2443 25.661 15.2443C25.661 15.2443 25.661 15.2443 25.661 15.2443L25.661 15.2443L25.661 15.2443C25.661 15.2443 25.661 15.2443 25.661 15.2443C25.661 15.2443 25.661 15.2443 25.661 15.2443L25.661 15.2443L25.661 15.2443C25.661 15.2443 25.661 15.2443 25.661 15.2443C25.661 15.2443 25.661 15.2443 25.661 15.2443L25.661 15.2443L25.661 15.2443C25.661 15.2443 25.661 15.2443 25.661 15.2443C25.661 15.2443 25.661 15.2443 25.661 15.2443C25.661 15.2443 25.661 15.2443 25.661 15.2443L25.661 15.2443C25.661 15.2443 25.661 15.2443 25.661 15.2443C25.661 15.2443 25.661 15.2443 25.661 15.2443C25.661 15.2443 25.661 15.2443 25.661 15.2443L25.661 15.2443C25.661 15.2443 25.661 15.2443 25.661 15.2443C25.661 15.2443 25.661 15.2443 25.661 15.2443C25.661 15.2443 25.661 15.2443 25.661 15.2443L25.661 15.2443C25.661 15.2443 25.661 15.2443 25.661 15.2443C25.661 15.2443 25.661 15.2443 25.661 15.2443C25.661 15.2443 25.661 15.2443 25.661 15.2443L25.661 15.2443C25.661 15.2443 25.661 15.2443 25.661 15.2443C25.661 15.2443 25.661 15.2443 25.661 15.2443C25.661 15.2443 25.661 15.2443 25.661 15.2443L25.661 15.2443L25.661 15.2443C25.661 15.2443 25.661 15.2443 25.661 15.2443C25.661 15.2443 25.661 15.2443 25.661 15.2443L25.661 15.2443L25.661 15.2443C25.661 15.2443 25.661 15.2443 25.661 15.2443L26.1786 17.1762ZM23.8242 12.2515L24.9543 16.469L26.8861 15.9513L25.7561 11.7338L23.8242 12.2515ZM22.6941 8.03381L23.8242 12.2515L25.7561 11.7338L24.6259 7.51617L22.6941 8.03381ZM23.9187 8.74096L23.9188 8.74091L23.4012 6.80906L23.401 6.80911L23.9187 8.74096ZM20.1644 5.37212C20.4296 6.36186 20.8987 7.24785 21.4922 7.87238C22.0555 8.46517 22.9301 9.00584 23.9187 8.74096L23.401 6.80911C23.4537 6.79499 23.2941 6.86521 22.9419 6.49464C22.6199 6.15581 22.2922 5.58555 22.0963 4.85448L20.1644 5.37212Z" fill="white"/>
<path d="M16.1806 14.2996C16.4792 15.4139 16.4889 16.4413 16.3102 17.1834C16.1212 17.9682 15.8008 18.1931 15.645 18.2348C15.4893 18.2765 15.0994 18.242 14.5433 17.6569C14.0175 17.1035 13.5122 16.2089 13.2137 15.0946C12.9151 13.9803 12.9053 12.953 13.0841 12.2108C13.2731 11.4261 13.5935 11.2012 13.7492 11.1595C13.905 11.1177 14.2949 11.1523 14.8509 11.7374C15.3768 12.2908 15.882 13.1853 16.1806 14.2996Z" stroke="white" stroke-width="2"/>
</svg>
