<svg width="25" height="28" viewBox="0 0 25 28" fill="none" xmlns="http://www.w3.org/2000/svg">
<path d="M6.05957 3.73227L12.3903 0H18.7277L25 3.73227V18.7648H6.05957V3.73227Z" fill="#FBAF00"/>
<circle cx="15.8597" cy="12.0336" r="4.34997" fill="white"/>
<path d="M10.4584 15.6853L10.7417 15.9686L10.9757 15.7346L10.7901 15.4607L10.4584 15.6853ZM1 25.1438L0.716734 24.8605L0.433467 25.1438L0.716734 25.4271L1 25.1438ZM3.10899 27.2528L2.82572 27.536L3.10899 27.8193L3.39226 27.536L3.10899 27.2528ZM12.6516 17.7102L12.849 17.3616L12.5838 17.2114L12.3683 17.4269L12.6516 17.7102ZM21.9783 12.0336C21.9783 15.4128 19.2389 18.1522 15.8597 18.1522V18.9534C19.6814 18.9534 22.7795 15.8553 22.7795 12.0336H21.9783ZM15.8597 5.915C19.2389 5.915 21.9783 8.6544 21.9783 12.0336H22.7795C22.7795 8.21191 19.6814 5.11381 15.8597 5.11381V5.915ZM9.74108 12.0336C9.74108 8.6544 12.4805 5.915 15.8597 5.915V5.11381C12.038 5.11381 8.93989 8.21191 8.93989 12.0336H9.74108ZM10.7901 15.4607C10.1279 14.4831 9.74108 13.3041 9.74108 12.0336H8.93989C8.93989 13.4693 9.37755 14.804 10.1268 15.91L10.7901 15.4607ZM1.28327 25.4271L10.7417 15.9686L10.1752 15.4021L0.716734 24.8605L1.28327 25.4271ZM3.39226 26.9695L1.28327 24.8605L0.716734 25.4271L2.82572 27.536L3.39226 26.9695ZM12.3683 17.4269L2.82572 26.9695L3.39226 27.536L12.9349 17.9934L12.3683 17.4269ZM15.8597 18.1522C14.7645 18.1522 13.7376 17.8648 12.849 17.3616L12.4542 18.0587C13.46 18.6284 14.6225 18.9534 15.8597 18.9534V18.1522Z" fill="white"/>
</svg>
