<svg width="16" height="16" viewBox="0 0 16 16" fill="none" xmlns="http://www.w3.org/2000/svg">
<g clip-path="url(#clip0_3:255)">
<path d="M8 0.000244141C12.4203 0.000244141 16 3.57993 16 8.00024C16 12.4206 12.4203 16.0002 8 16.0002C3.57966 16.0002 0 12.4206 0 8.00024C3.82609e-06 3.57993 3.57966 0.000244141 8 0.000244141ZM2.95652 4.86709C2.67049 4.86709 2.43478 5.10278 2.43478 5.38883V8.33245C2.43462 8.33662 2.43462 8.34114 2.43478 8.34531V9.46016V11.3018C2.43146 11.537 2.78593 11.537 2.78261 11.3018V10.7801H13.2174V11.3018C13.2141 11.537 13.5685 11.537 13.5652 11.3018V8.34531C13.5652 7.96291 13.252 7.64966 12.8696 7.64966C12.8685 7.26823 12.5556 6.95604 12.1739 6.95604H4.83696C4.76443 6.75465 4.57277 6.60822 4.34783 6.60822H3.65217C3.59108 6.60822 3.53295 6.62041 3.47826 6.64023V5.38887C3.47826 5.10282 3.24256 4.86713 2.95652 4.86713V4.86709ZM2.95652 5.21492C3.05588 5.21492 3.13043 5.28946 3.13043 5.38883V7.79576C3.12744 7.8142 3.12744 7.833 3.13043 7.85147V9.38883H2.78261V8.34535V5.38883C2.78261 5.28946 2.85717 5.21492 2.95652 5.21492ZM3.65217 6.95609H4.34783C4.44305 6.95609 4.51384 7.0253 4.5197 7.11845C4.51883 7.13202 4.51952 7.14521 4.52175 7.15853V7.6497H3.47828V7.13C3.47828 7.03066 3.55283 6.95609 3.65219 6.95609H3.65217ZM4.86957 7.30391H12.1739C12.3689 7.30391 12.5199 7.45509 12.5211 7.6497H4.86957V7.30391ZM3.47826 7.99753H4.65829C4.6829 8.00309 4.7084 8.00309 4.73302 7.99753H12.8696C13.0653 7.99753 13.2174 8.14963 13.2174 8.34535V9.38883H3.47826V7.99753ZM2.78261 9.73666H13.2174V10.4323H2.78261V9.73666Z" fill="#FBAF00"/>
</g>
<defs>
<clipPath id="clip0_3:255">
<rect width="16" height="16" fill="white"/>
</clipPath>
</defs>
</svg>
